<svg height="462pt" viewBox="-12 0 462 462.37204" width="462pt" xmlns="http://www.w3.org/2000/svg" xmlns:xlink="http://www.w3.org/1999/xlink"><linearGradient id="a" gradientUnits="userSpaceOnUse" x1="5.34505" x2="336.14505" y1="417.948038" y2="87.156038"><stop offset="0" stop-color="#41dfd0"/><stop offset="1" stop-color="#ee83ef"/></linearGradient><path d="m97.488281 333.285156 24.207031 41.597656c.066407.105469.160157.183594.226563.289063.0625.105469 0 .121094.070313.175781l13.601562 20c1.488281 2.199219 3.96875 3.511719 6.625 3.511719h.796875l93.210937-9.0625c.703126-.070313 1.394532-.234375 2.054688-.480469l24.800781-9.382812-21.191406 65.597656c-.964844 3.039062-.035156 6.363281 2.371094 8.453125 2.402343 2.09375 5.820312 2.5625 8.699219 1.1875l46.070312-22.398437c1.519531-.738282 2.765625-1.9375 3.5625-3.425782l43.199219-80.703125 72-27.199219c16.535156-6.246093 24.875-24.710937 18.628906-41.246093-6.246094-16.53125-24.710937-24.871094-41.246094-18.628907l-71.519531 27.042969-8.800781-4.546875c45.707031-58.636718 49.613281-139.679687 9.761719-202.445312-39.851563-62.765625-114.859376-93.699219-187.371094-77.273438-72.511719 16.421875-126.871094 76.65625-135.789063 150.46875s29.527344 145.261719 96.039063 178.484375zm53.601563 20.550782-18.96875 7.199218-16.304688-28.039062 8.992188-3.398438zm138.605468 65.671874-26.863281 13.0625 19.351563-59.878906 40.859375-15.449218zm111.136719-142.984374c8.230469-2.992188 17.335938 1.1875 20.433594 9.378906 3.097656 8.1875-.964844 17.347656-9.113281 20.550781l-178.597656 67.527344-87.425782 8.503906-5.207031-7.6875 25.917969-9.808594zm-140.800781 36.128906c-.25-.375-.535156-.726563-.847656-1.054688l-68.277344-53.65625 20.796875-9.113281 91.824219 47.382813zm-93.535156-24.679688v15.496094c-63.519532-5.039062-113.722656-55.917969-117.910156-119.496094h29.910156v-16h-29.910156c4.179687-63.585937 54.386718-114.46875 117.910156-119.496094v23.496094h16v-23.679687c64.960937 3.285156 117.128906 54.769531 121.273437 119.679687h-33.273437v16h33.296875c-1.714844 28.808594-13.238281 56.164063-32.65625 77.519532l-55.457031-28.632813c-2.140626-1.09375-4.664063-1.175781-6.871094-.214844l-36.558594 16c-2.570312 1.128907-4.359375 3.523438-4.714844 6.308594-.355468 2.785156.773438 5.550781 2.976563 7.289063l45.128906 35.464843c-10.734375 3.445313-21.878906 5.4375-33.144531 5.921875v-15.65625zm9.679687-272c61.695313-.085937 117.925781 35.351563 144.464844 91.046875 26.539063 55.691407 18.644531 121.6875-20.28125 169.550781l-14.535156-7.503906c22.230469-25.914062 34.417969-58.949218 34.351562-93.09375-.089843-79.492187-64.507812-143.90625-144-144h-1.773437c-79.53125.027344-143.980469 64.519532-143.953125 144.046875.027343 79.53125 64.519531 143.980469 144.046875 143.953125h1.679687c18.558594-.027344 36.933594-3.683594 54.089844-10.761718l12.625 9.960937-37.105469 14.023437c-17.234375 3.28125-34.894531 3.667969-52.257812 1.152344l-21.496094-19.847656c-2.230469-2.042969-5.421875-2.660156-8.253906-1.601562l-17.886719 6.769531c-66.960937-32.664063-102.5-107.234375-85.703125-179.816407 16.800781-72.582031 81.488281-123.957031 155.988281-123.878906zm-8 160.167969-1.648437-80 16-.335937 1.601562 75.734374 58.761719 37.695313-8.640625 13.472656-62.351562-40c-2.273438-1.421875-3.683594-3.886719-3.753907-6.566406zm-128.132812 200.632813 7.582031 14.085937-28.191406 15.199219-7.578125-14.160156zm56.894531-12.441407-35.242188 18.921875-7.574218-14.097656 35.199218-18.945312zm-54.761719 83.929688 28.175781-15.152344 7.585938 14.0625-28.183594 15.199219zm49.847657-8.640625-7.574219-14.097656 35.199219-18.945313 7.585937 14.097656zm-8.109376-32-49.3125 26.550781-7.585937-14.085937 49.3125-26.515626zm14.085938-7.578125-7.574219-14.09375 14.09375-7.585938 7.578125 14.089844zm0 0" fill="url(#a)"/></svg>